<?xml version="1.0" encoding="utf-8"?>
<!-- Generator: Adobe Illustrator 21.0.0, SVG Export Plug-In . SVG Version: 6.00 Build 0)  -->
<svg version="1.1" id="图层_1" xmlns="http://www.w3.org/2000/svg" xmlns:xlink="http://www.w3.org/1999/xlink" x="0px" y="0px"
	 viewBox="0 0 34 34" style="enable-background:new 0 0 34 34;" xml:space="preserve">
<style type="text/css">
	.st0{fill:none;}
	.st1{fill:#999999;}
</style>
<title>Group 21 Copy 14</title>
<desc>Created with Sketch.</desc>
<g>
	<rect id="Rectangle-14" class="st0" width="34" height="34"/>
	<g>
		<path class="st1" d="M25.5,5h-17C3.8,5,0,8.8,0,13.5v7C0,25.2,3.8,29,8.5,29h17c4.7,0,8.5-3.8,8.5-8.5v-7C34,8.8,30.2,5,25.5,5z
			 M33,20.5c0,4.1-3.4,7.5-7.5,7.5h-17C4.4,28,1,24.6,1,20.5v-7C1,9.4,4.4,6,8.5,6h17c4.1,0,7.5,3.4,7.5,7.5V20.5z"/>
		<polygon class="st1" points="22.1,10.8 17,15.9 11.9,10.8 10.9,11.8 16,16.9 10.9,21.9 11.9,22.9 17,17.8 22.1,22.9 23.1,21.9 
			18,16.9 23.1,11.8 		"/>
	</g>
</g>
</svg>
