<?xml version="1.0" encoding="utf-8"?>
<!-- Generator: Adobe Illustrator 21.0.0, SVG Export Plug-In . SVG Version: 6.00 Build 0)  -->
<svg version="1.1" id="图层_1" xmlns="http://www.w3.org/2000/svg" xmlns:xlink="http://www.w3.org/1999/xlink" x="0px" y="0px"
	 viewBox="0 0 96 96" style="enable-background:new 0 0 96 96;" xml:space="preserve">
<style type="text/css">
	.st0{fill:#D08CF3;}
	.st1{fill:#FFFFFF;}
</style>
<title>知识分享</title>
<desc>Created with Sketch.</desc>
<g>
	<circle id="Oval-2-Copy-2" class="st0" cx="48" cy="48" r="48"/>
	
		<rect id="Rectangle-path" x="33" y="41" transform="matrix(0.7071 -0.7071 0.7071 0.7071 -17.4327 44.9138)" class="st1" width="25" height="5"/>
	<rect id="Rectangle-path_2_" x="43" y="59" class="st1" width="25" height="4"/>
	
		<rect id="Rectangle-path_4_" x="65" y="35" transform="matrix(0.9569 -0.2905 0.2905 0.9569 -10.9308 21.3667)" class="st1" width="3" height="25"/>
	<rect x="34" y="43" transform="matrix(0.7071 -0.7071 0.7071 0.7071 -17.4934 45.7673)" class="st0" width="25" height="2"/>
	<rect x="43" y="60" class="st0" width="25" height="2"/>
	<rect x="66" y="35" transform="matrix(0.9569 -0.2905 0.2905 0.9569 -10.93 21.3668)" class="st0" width="1" height="25"/>
	<circle id="Oval" class="st1" cx="58" cy="31" r="12"/>
	<circle id="Oval_1_" class="st1" cx="34.5" cy="57.5" r="15.5"/>
	<circle id="Oval_2_" class="st0" cx="36.5" cy="54.5" r="11.5"/>
	<circle id="Oval_3_" class="st1" cx="38" cy="52" r="4"/>
	<circle id="Oval_4_" class="st0" cx="55.5" cy="33.5" r="8.5"/>
	<circle id="Oval_5_" class="st1" cx="68.5" cy="59.5" r="9.5"/>
	<circle id="Oval_6_" class="st0" cx="66.5" cy="57.5" r="6.5"/>
	<circle id="Oval_7_" class="st1" cx="52.5" cy="36.5" r="2.5"/>
	<circle id="Oval_8_" class="st1" cx="64.5" cy="56.5" r="2.5"/>
</g>
</svg>
