<?xml version="1.0" encoding="utf-8"?>
<!-- Generator: Adobe Illustrator 21.0.0, SVG Export Plug-In . SVG Version: 6.00 Build 0)  -->
<svg version="1.1" id="图层_1" xmlns="http://www.w3.org/2000/svg" xmlns:xlink="http://www.w3.org/1999/xlink" x="0px" y="0px"
	 viewBox="0 0 96 96" style="enable-background:new 0 0 96 96;" xml:space="preserve">
<style type="text/css">
	.st0{fill:#66A4FA;}
	.st1{fill:none;}
	.st2{fill:#B1D2FF;}
	.st3{fill:#FFFFFF;}
</style>
<title>咨询机构</title>
<desc>Created with Sketch.</desc>
<g>
	<circle id="Oval-2-Copy" class="st0" cx="48" cy="48" r="48"/>
	<rect id="Rectangle-path" x="49.2" y="68.8" class="st1" width="3.1" height="1"/>
	<g>
		<path class="st2" d="M42.8,23.2c-0.6-0.4-1.3-0.4-1.8-0.1l-12.5,7.3c-0.7,0.3-1.2,1.1-1.2,1.8v36.6h16.5v-44
			C43.7,24.2,43.3,23.6,42.8,23.2z M30.2,36c0-0.4,0.3-0.9,0.6-1.1l8-4c0.8-0.4,1.7,0.2,1.7,1.1v2.3c0,0.4-0.3,0.9-0.7,1.1l-8,3.3
			c-0.8,0.4-1.6-0.2-1.6-1.1V36z M30.2,46.2c0-0.6,0.4-1.1,0.9-1.3l7.7-3c0.9-0.3,1.8,0.4,1.8,1.3v2.1c0,0.6-0.4,1.1-0.9,1.3
			L32,49.1c-0.9,0.3-1.7-0.4-1.7-1.3V46.2z M40.7,55.9c0,0.9-0.6,1.6-1.4,1.8l-6.8,1.8c-1.2,0.3-2.3-0.6-2.3-1.8v-1.1
			c0-0.9,0.6-1.6,1.4-1.8l6.8-1.9c1.2-0.3,2.3,0.6,2.3,1.8V55.9z"/>
		<path id="Shape_5_" class="st3" d="M71.1,68.9h-1.8V39.5c0-0.9-0.5-1.6-1.3-1.9L55.1,30c-0.6-0.3-1.4-0.2-1.9,0.1l0,0
			c-0.6,0.4-0.9,1-0.9,1.7v36.9h-2.1v0.1h-0.9v-48c0-0.9-0.4-1.7-1.1-2.2l0,0c-0.8-0.5-1.7-0.6-2.6-0.2l-16.8,9.7
			c-1,0.4-1.6,1.4-1.6,2.5v38.3h-0.4V69h-2.6c-0.5,0-0.9,0.4-0.9,0.9V73c0,0.5,0.4,0.9,0.9,0.9h46.9c0.5,0,0.9-0.4,0.9-0.9v-3.1
			C72,69.3,71.6,68.9,71.1,68.9z M27.2,32.3c0-0.8,0.5-1.5,1.2-1.8l12.5-7.3c0.6-0.3,1.3-0.2,1.8,0.1c0,0,0.1,0,0.1,0.1
			c0.6,0.4,0.9,1,0.9,1.6v43.7H27.2V32.3z M56.6,68.8V35.3c0-0.5,0.3-1,0.7-1.3c0,0,0.1,0,0.1-0.1c0.4-0.2,0.9-0.3,1.4-0.1l9.6,5.6
			c0.6,0.2,0.9,0.8,0.9,1.4v28h-0.8v-0.1L56.6,68.8L56.6,68.8z"/>
		<path class="st2" d="M68.3,39.3l-9.6-5.7c-0.4-0.2-1-0.1-1.4,0.1c-0.4,0.3-0.7,0.8-0.7,1.3v34.2h12.7V40.7
			C69.2,40.1,68.9,39.5,68.3,39.3z M66.9,60.5c0,0.9-0.9,1.6-1.8,1.4l-5.2-1.4c-0.6-0.1-1-0.7-1-1.4v-0.9c0-0.9,0.9-1.6,1.8-1.4
			l5.2,1.5c0.6,0.1,1,0.7,1,1.3V60.5z M66.9,52.8c0,0.7-0.7,1.2-1.4,1l-6-1.9c-0.4-0.1-0.7-0.6-0.7-1v-1.6c0-0.7,0.7-1.2,1.4-1
			l6,2.3c0.4,0.2,0.6,0.6,0.6,1V52.8z M66.9,44.9c0,0.6-0.6,1.1-1.3,0.9l-6.2-2.6c-0.4-0.1-0.6-0.5-0.6-0.9v-1.8
			c0-0.7,0.7-1.1,1.4-0.9l6.2,3.1c0.3,0.2,0.5,0.5,0.5,0.9V44.9z"/>
	</g>
</g>
</svg>
