<?xml version="1.0" encoding="utf-8"?>
<!-- Generator: Adobe Illustrator 21.0.0, SVG Export Plug-In . SVG Version: 6.00 Build 0)  -->
<svg version="1.1" id="图层_1" xmlns="http://www.w3.org/2000/svg" xmlns:xlink="http://www.w3.org/1999/xlink" x="0px" y="0px"
	 viewBox="0 0 96 96" style="enable-background:new 0 0 96 96;" xml:space="preserve">
<style type="text/css">
	.st0{fill:#FF8D69;}
	.st1{fill:url(#Shape_10_);}
	.st2{fill:url(#Shape_11_);}
	.st3{fill:#FFFFFF;}
	.st4{fill:#FFE1D4;}
	.st5{fill:#FF8863;}
	.st6{fill:none;}
	.st7{fill:url(#Shape_12_);}
	.st8{fill:url(#Shape_13_);}
</style>
<title>项目需求</title>
<desc>Created with Sketch.</desc>
<g id="_x32_.01-产业咨询首页" transform="translate(-77.000000, -239.000000)">
	<g id="项目需求" transform="translate(77.000000, 239.000000)">
		<circle id="Oval-2" class="st0" cx="48" cy="48" r="48"/>
		
			<g id="Group" transform="translate(46.000000, 50.000000) rotate(-4.000000) translate(-46.000000, -50.000000) translate(22.000000, 23.000000)">
			
				<linearGradient id="Shape_10_" gradientUnits="userSpaceOnUse" x1="-16.8283" y1="61.6453" x2="-15.556" y2="62.1396" gradientTransform="matrix(37.2587 3.7219 2.6053 -53.2267 471.9395 3383.8838)">
				<stop  offset="2.649288e-03" style="stop-color:#69E1FF"/>
				<stop  offset="0.1967" style="stop-color:#69E1FF"/>
				<stop  offset="1" style="stop-color:#1065E4"/>
			</linearGradient>
			<path id="Shape" class="st1" d="M42.8,0L17,2.5c-1.9,0.2-3.5,1.7-3.6,3.7L9.8,48l27.6,5.4l0.1-0.2c0.3,0,0.6,0,0.9,0
				c1.4-0.3,2.6-1.1,3.4-2.3c0.6-0.9,1-1.9,1.1-2.9l0.3-6.2l4-37.4C47.4,1.9,45.3-0.2,42.8,0z"/>
			
				<linearGradient id="Shape_11_" gradientUnits="userSpaceOnUse" x1="-16.8741" y1="61.6497" x2="-15.4918" y2="62.1574" gradientTransform="matrix(34.5973 3.5979 2.4192 -51.4524 439.4585 3271.3726)">
				<stop  offset="2.649288e-03" style="stop-color:#69E1FF"/>
				<stop  offset="0.1967" style="stop-color:#69E1FF"/>
				<stop  offset="1" style="stop-color:#1065E4"/>
			</linearGradient>
			<path id="Shape_1_" class="st2" d="M34.8,51.4c0.3,0,0.6,0,0.9,0c1.4-0.3,2.6-1.1,3.4-2.3c0.6-0.9,1-1.9,1.1-2.9l0.3-6.2l4-37.1
				c0.1-1.1-0.3-2.2-0.9-2.9c-0.1,0-0.3,0-0.5,0L17,2.5c-1.9,0.2-3.5,1.7-3.7,3.7L9.8,46.8l24.8,4.8L34.8,51.4z"/>
			<path id="Shape_2_" class="st3" d="M43.3,0c-0.1,0-0.3,0-0.5,0L17,2.5c-1.9,0.2-3.5,1.7-3.6,3.7L9.8,47.2L9.8,48l27.6,5.4
				l0.1-0.2c0.3,0,0.6,0,0.9,0c1.4-0.3,2.6-1.1,3.4-2.3c0.6-0.9,1-1.9,1.1-2.9l0.3-6.2l4-37.4C47.4,2,45.6,0,43.3,0z"/>
			<path id="Shape_3_" class="st4" d="M33,51.4c0.3,0,0.6,0,0.9,0c1.4-0.3,2.6-1.1,3.4-2.3c0.6-0.9,1-1.9,1.1-2.9l0.3-6.2l4-37.1
				c0.1-1.1-0.3-2.2-0.9-2.9c-0.1,0-0.3,0-0.5,0l-26,2.5c-1.9,0.2-3.5,1.7-3.7,3.7L8,46.8l24.8,4.8L33,51.4z"/>
			<g id="Shape_4_" transform="translate(15.117715, 9.782051)">
				<path class="st5" d="M0.9,18.4c-0.7,0.4-1,1.3-0.6,2s1.3,0.9,2,0.6c0.7-0.4,1-1.3,0.6-2C2.5,18.3,1.6,18,0.9,18.4z"/>
				<path class="st5" d="M17.1,19.4L6.2,18.7c-0.9-0.1-1.6,0.5-1.7,1.4C4.5,21,5.1,21.7,6,21.8l10.9,0.7c0.9,0.1,1.6-0.6,1.7-1.5
					C18.6,20.2,18,19.4,17.1,19.4z"/>
				<path class="st5" d="M3.1,12c0.7-0.4,0.9-1.3,0.5-2c-0.4-0.7-1.3-0.9-2-0.5c-0.7,0.5-0.9,1.3-0.5,2C1.5,12.3,2.4,12.5,3.1,12z"
					/>
				<path class="st5" d="M17.8,9.8L6.9,9.5c-0.9,0-1.6,0.7-1.7,1.5c0,0.9,0.7,1.6,1.5,1.6l10.9,0.3c0.9,0,1.6-0.7,1.7-1.5
					C19.4,10.5,18.7,9.9,17.8,9.8z"/>
				<path class="st5" d="M3.8,3.3c0.7-0.5,0.9-1.4,0.5-2.1c-0.5-0.7-1.4-0.9-2-0.4S1.4,2.3,1.8,2.9S3.1,3.7,3.8,3.3z"/>
				<path class="st5" d="M18.5,0.5l-11,0.1c-0.9,0-1.6,0.7-1.6,1.6s0.7,1.5,1.6,1.5l10.9-0.1c0.9,0,1.6-0.7,1.6-1.6
					S19.3,0.5,18.5,0.5z"/>
			</g>
			<path id="Shape_5_" class="st6" d="M33.7,52.6c0.1,0,0.1,0,0.1,0l-0.9-0.1C33.2,52.5,33.5,52.5,33.7,52.6z"/>
			<path id="Shape_6_" class="st3" d="M36.2,50.3c-2,0.2-4.2-0.4-4-2.9c0,0-0.2-6.2-0.1-7.1c0-0.6-9.5-1.6-28.6-3l24.8,2.8
				c-0.1,0.9-0.1,7.8-0.1,7.8c-0.2,2.2,1.5,4,3.6,4.7l0.9,0.2c0.3,0,0.5,0.2,0.4,0.2c0.5,0,0.9,0.1,1.2,0.1c0.2,0,0.4,0.1,0.8,0.2
				c0.8,0.1,2.8,0.1,3.5-0.1C38.3,53.2,36.5,50.4,36.2,50.3z"/>
			
				<linearGradient id="Shape_12_" gradientUnits="userSpaceOnUse" x1="-63.1736" y1="164.5814" x2="-30.7022" y2="184.2577" gradientTransform="matrix(0.7559 4.805114e-03 5.285875e-02 -6.872184e-02 50.4409 65.3639)">
				<stop  offset="3.538830e-03" style="stop-color:#72A3E8;stop-opacity:0.6"/>
				<stop  offset="1" style="stop-color:#BAE7FF"/>
			</linearGradient>
			<path id="Shape_7_" class="st7" d="M33.8,52.5l0.4,0.1c0.1,0,0.3,0,0.3-0.1C34.3,52.5,34.1,52.5,33.8,52.5z"/>
			
				<linearGradient id="Shape_13_" gradientUnits="userSpaceOnUse" x1="-59.497" y1="167.1763" x2="-27.0256" y2="186.8526" gradientTransform="matrix(0.7559 4.805114e-03 5.285875e-02 -6.872184e-02 50.4409 65.3639)">
				<stop  offset="3.538830e-03" style="stop-color:#72A3E8;stop-opacity:0.6"/>
				<stop  offset="1" style="stop-color:#BAE7FF"/>
			</linearGradient>
			<path id="Shape_8_" class="st8" d="M33.8,52.5l0.4,0.1c0.1,0,0.3,0,0.3-0.1C34.3,52.5,34.1,52.5,33.8,52.5z"/>
			<path id="Shape_9_" class="st3" d="M33.4,52.4c-0.1,0-0.1,0-0.1,0c-0.3,0-0.5-0.1-0.7-0.1c-2.1-0.6-3.9-2.4-3.7-4.7
				c0,0,0-7,0.1-7.8l-25-2.8L0,36.5l0.2,6.4c0.1,3,4.8,4.3,7.7,4.8l24,4.7c0.7,0.1,1.3,0.1,1.9,0.1L33.4,52.4z"/>
		</g>
	</g>
</g>
</svg>
