<?xml version="1.0" encoding="utf-8"?>
<!-- Generator: Adobe Illustrator 21.0.0, SVG Export Plug-In . SVG Version: 6.00 Build 0)  -->
<svg version="1.1" id="图层_1" xmlns="http://www.w3.org/2000/svg" xmlns:xlink="http://www.w3.org/1999/xlink" x="0px" y="0px"
	 viewBox="0 0 88 88" style="enable-background:new 0 0 88 88;" xml:space="preserve">
<style type="text/css">
	.st0{fill:#FF7194;}
	.st1{fill:#FFFFFF;}
</style>
<title>已购 copy</title>
<desc>Created with Sketch.</desc>
<circle id="Oval-5-Copy-2" class="st0" cx="44" cy="44" r="44"/>
<g>
	<path class="st1" d="M60.2,32.5h-2.7v-4.9c0-1.9-2.1-3.1-5.3-3.1H37.8c-3.2,0-5.3,1.2-5.3,3.1v4.9h-3.7c-2.4,0-4.3,1.6-4.3,3.7
		v23.7c0,2,1.9,3.7,4.3,3.7h31.4c2.4,0,4.3-1.6,4.3-3.7V36.2C64.5,34.1,62.6,32.5,60.2,32.5z M36.4,32.5v-4.3
		c0.4-0.1,0.9-0.2,1.4-0.2h14.4c0.5,0,1.1,0.1,1.4,0.2v4.3H36.4z M60.5,35.8v24.4c0,0.2-0.2,0.3-0.4,0.3H28.9
		c-0.2,0-0.4-0.1-0.4-0.3V35.8c0-0.2,0.2-0.3,0.4-0.3h31.1C60.3,35.5,60.5,35.6,60.5,35.8z"/>
	<path class="st1" d="M50.5,42.7L42.8,51l-4.3-4.4c-0.8-0.8-2.1-0.8-2.9,0C35.2,47,35,47.5,35,48.1c0,0.5,0.2,1.1,0.6,1.4l5.8,5.9
		c0.4,0.4,0.9,0.6,1.5,0.6c0,0,0,0,0,0c0.6,0,1.1-0.2,1.5-0.7l9.2-9.9C53.8,45,54,44.5,54,44c0-0.5-0.3-1-0.7-1.4
		C52.5,41.8,51.2,41.8,50.5,42.7z M51.2,43.3L51.2,43.3L51.2,43.3L51.2,43.3z"/>
</g>
</svg>
