<?xml version="1.0" encoding="utf-8"?>
<!-- Generator: Adobe Illustrator 21.0.0, SVG Export Plug-In . SVG Version: 6.00 Build 0)  -->
<svg version="1.1" id="图层_1" xmlns="http://www.w3.org/2000/svg" xmlns:xlink="http://www.w3.org/1999/xlink" x="0px" y="0px"
	 viewBox="0 0 88 88" style="enable-background:new 0 0 88 88;" xml:space="preserve">
<style type="text/css">
	.st0{fill:#FFBF36;}
	.st1{fill:#FFFFFF;}
</style>
<title>收藏 copy</title>
<desc>Created with Sketch.</desc>
<g>
	<circle id="Oval-5" class="st0" cx="44" cy="44" r="44"/>
	<g id="Combined-Shape">
		<path class="st1" d="M54.7,65c-0.8,0-1.6-0.2-2.4-0.7l-6.9-3.8c-0.4-0.2-1.4-0.2-1.8,0l-6.9,3.8c-1.6,0.9-3.4,0.9-4.7,0
			c-1.3-1-2-2.7-1.7-4.6l1.3-8.1c0.1-0.6-0.3-1.7-0.6-2.1l-5.6-5.7c-1.3-1.3-1.8-3.1-1.3-4.6c0.5-1.5,1.9-2.6,3.7-2.9l7.7-1.2
			c0.4-0.1,1.3-0.7,1.5-1.2l3.4-7.3c0.8-1.7,2.3-2.8,3.9-2.8l0,0c1.6,0,3.1,1,3.9,2.8l3.4,7.3c0.2,0.5,1.1,1.1,1.5,1.2l7.7,1.2
			c1.8,0.3,3.2,1.4,3.7,2.9c0.5,1.5,0,3.3-1.3,4.6l-5.6,5.7c-0.3,0.3-0.7,1.5-0.6,2.1l1.3,8.1c0.3,1.9-0.3,3.6-1.7,4.6
			C56.3,64.8,55.5,65,54.7,65z M44.5,28c-0.1,0.1-0.2,0.2-0.3,0.4l-3.4,7.3C40,37.5,38,39,36.2,39.2l-7.7,1.2
			c-0.4,0.1-0.5,0.2-0.5,0.2c0,0,0.1,0.2,0.3,0.5l5.6,5.7c1.3,1.3,2,3.7,1.7,5.5l-1.3,8.1c-0.1,0.4,0,0.6,0,0.7c0,0,0.2-0.1,0.4-0.2
			l6.9-3.8c1.6-0.9,4-0.9,5.6,0l6.9,3.8c0.3,0.2,0.5,0.2,0.5,0.2h0c0,0,0-0.2,0-0.6l-1.3-8.1c-0.3-1.8,0.5-4.2,1.7-5.5l5.6-5.7
			c0.3-0.3,0.3-0.5,0.3-0.5l0,0c0,0-0.2-0.1-0.5-0.2l-7.7-1.2C51,39,49,37.5,48.3,35.8l-3.5-7.3C44.7,28.2,44.6,28.1,44.5,28z"/>
	</g>
</g>
</svg>
