<?xml version="1.0" encoding="utf-8"?>
<!-- Generator: Adobe Illustrator 21.0.0, SVG Export Plug-In . SVG Version: 6.00 Build 0)  -->
<svg version="1.1" id="图层_1" xmlns="http://www.w3.org/2000/svg" xmlns:xlink="http://www.w3.org/1999/xlink" x="0px" y="0px"
	 viewBox="0 0 88 88" style="enable-background:new 0 0 88 88;" xml:space="preserve">
<style type="text/css">
	.st0{fill:#66A4FA;}
	.st1{fill:#FFFFFF;}
</style>
<title>下载 copy</title>
<desc>Created with Sketch.</desc>
<circle id="Oval-5-Copy" class="st0" cx="44" cy="44" r="44"/>
<path class="st1" d="M58.8,59.6H45l16.3-17.5c0.7-0.7,0.6-1.9-0.1-2.5c-0.3-0.3-0.8-0.5-1.2-0.5h-8.9V26.8c0-1.1-0.9-2-2-2H38.8
	c-1.1,0-2,0.9-2,2v12.3H28c-1,0-1.8,0.8-1.8,1.8c0,0.5,0.2,0.9,0.5,1.2L43,59.6H29.5c-1,0-1.8,0.8-1.8,1.8c0,1,0.8,1.8,1.8,1.8h29.3
	c1,0,1.8-0.8,1.8-1.8C60.6,60.4,59.8,59.6,58.8,59.6z M31.9,42.6h8.4V28.3h7.4v14.3h8.4L44,55.6L31.9,42.6z"/>
</svg>
