<?xml version="1.0" encoding="utf-8"?>
<!-- Generator: Adobe Illustrator 21.0.0, SVG Export Plug-In . SVG Version: 6.00 Build 0)  -->
<svg version="1.1" id="图层_1" xmlns="http://www.w3.org/2000/svg" xmlns:xlink="http://www.w3.org/1999/xlink" x="0px" y="0px"
	 viewBox="0 0 88 88" style="enable-background:new 0 0 88 88;" xml:space="preserve">
<style type="text/css">
	.st0{fill:#D08CF3;}
	.st1{fill:#FFFFFF;}
</style>
<title>历史 copy</title>
<desc>Created with Sketch.</desc>
<g>
	<circle id="Oval-5-Copy-3" class="st0" cx="44" cy="44" r="44"/>
	<g id="Group-2" transform="translate(21.000000, 21.000000)">
		<path id="Oval-2" class="st1" d="M23,46C10.3,46,0,35.7,0,23S10.3,0,23,0s23,10.3,23,23S35.7,46,23,46z M23,42.1
			c10.5,0,19.1-8.5,19.1-19.1S33.5,3.9,23,3.9S3.9,12.5,3.9,23S12.5,42.1,23,42.1z"/>
		<path id="Path-5" class="st1" d="M22.4,10.9c0-1.1,0.8-1.9,1.8-1.9S26,9.9,26,10.9v15.1c0,1.1-0.8,1.9-1.8,1.9h-8.4
			c-1,0-1.8-0.9-1.8-1.9c0-1.1,0.8-1.9,1.8-1.9h6.7V10.9z"/>
	</g>
</g>
</svg>
