<?xml version="1.0" encoding="utf-8"?>
<!-- Generator: Adobe Illustrator 21.0.0, SVG Export Plug-In . SVG Version: 6.00 Build 0)  -->
<svg version="1.1" id="图层_1" xmlns="http://www.w3.org/2000/svg" xmlns:xlink="http://www.w3.org/1999/xlink" x="0px" y="0px"
	 viewBox="0 0 44 44" style="enable-background:new 0 0 44 44;" xml:space="preserve">
<style type="text/css">
	.st0{fill:none;}
	.st1{fill:#3980E4;}
</style>
<title>Group 24 Copy</title>
<desc>Created with Sketch.</desc>
<g>
	<rect id="Rectangle-28" class="st0" width="44" height="44"/>
	<g>
		<path class="st1" d="M35.3,21.7c-0.4,0-0.7,0.2-1,0.4c-0.3,0.3-0.4,0.6-0.4,1l0,11.2c0,1.5-1.1,2.6-2.6,2.7l-21.7,0
			c-1.4,0-2.6-1.2-2.6-2.7l0-22.4c0-1.5,1.1-2.6,2.6-2.7l10.9,0c0.8,0,1.4-0.6,1.4-1.4c0-0.8-0.6-1.4-1.4-1.4H9.6
			c-3,0-5.4,2.5-5.3,5.5l0,22.3c0,3,2.3,5.4,5.3,5.5l21.8,0c3,0,5.4-2.5,5.3-5.5l0-11.2c0-0.4-0.1-0.7-0.4-1
			C36,21.9,35.7,21.7,35.3,21.7z"/>
		<path class="st1" d="M38.5,5.5c-0.8-0.8-1.8-1.2-2.9-1.2c-1.1,0-2.1,0.4-2.9,1.2L15.2,23.6c-0.4,0.4-0.7,0.9-0.9,1.4l-2,5
			c-0.3,0.7-0.1,1.5,0.4,2c0.5,0.5,1.3,0.7,2,0.4l4.9-2c0.5-0.2,1-0.5,1.4-0.9l17.6-18C40.1,9.8,40.1,7.2,38.5,5.5z M14.5,30.1
			l1.7-4.3l2.5,2.6L14.5,30.1z M19.9,27.5l-2.8-2.9l14-14.4l2.8,2.9L19.9,27.5z M37,9.9L35,12l-2.8-2.9l2-2.1
			c0.4-0.4,0.9-0.6,1.4-0.6s1,0.2,1.4,0.6C37.8,7.8,37.8,9.1,37,9.9L37,9.9z"/>
	</g>
</g>
</svg>
