<?xml version="1.0" encoding="utf-8"?>
<!-- Generator: Adobe Illustrator 21.0.0, SVG Export Plug-In . SVG Version: 6.00 Build 0)  -->
<svg version="1.1" id="图层_1" xmlns="http://www.w3.org/2000/svg" xmlns:xlink="http://www.w3.org/1999/xlink" x="0px" y="0px"
	 viewBox="0 0 128 128" style="enable-background:new 0 0 128 128;" xml:space="preserve">
<style type="text/css">
	.st0{fill:#CD72E9;}
</style>
<title>TXT@1x</title>
<desc>Created with Sketch.</desc>
<g>
	<path class="st0" d="M32,102c0,2.9,2.4,5.3,5.3,5.3h57c2.9,0,5.3-2.4,5.3-5.3V55.5H32V102z M41.4,68H89v2H41.4V68z M41.4,76H89v2
		H41.4V76z M41.4,83.9H89v2H41.4V83.9z M41.4,91.9h26.5v2H41.4V91.9z"/>
	<path class="st0" d="M77.4,20.1L77,19.7H37.3C34.4,19.7,32,22,32,25v27.5h67.6v-9.9l-0.4-0.4H83.7c-3.5,0-6.3-2.8-6.3-6.3V20.1z
		 M47.9,29.5h-3.8V39h-1.5v-9.5h-3.8v-1.1h9V29.5z M55.1,39l-2.7-4.2L49.6,39h-1.4l3.5-5.3l-3.3-5.3h1.8l2.6,4l2.7-4h1.4l-3.4,5.1
		l3.5,5.5H55.1z M66.4,29.5h-3.8V39h-1.5v-9.5h-3.8v-1.1h9V29.5z"/>
	<path class="st0" d="M124,0H4C1.8,0,0,1.8,0,4v120c0,2.2,1.8,4,4,4h120c2.2,0,4-1.8,4-4V4C128,1.8,126.2,0,124,0z M101.6,52.5v3
		V102c0,4-3.3,7.3-7.3,7.3h-57c-4,0-7.3-3.3-7.3-7.3V55.5v-3V25c0-4,3.3-7.3,7.3-7.3h40.5l23.8,24.1V52.5z"/>
</g>
</svg>
